#!OML:ASF I:\Actors\actors\Patient Classification 2\Patient 1\Session 1\actor1.ASF
:FULLY-SPECIFIED
:DEGREES
601
root -0.740263 18.7028 5.68474 9.61755 -7.87821 -1.87558
lowerback 20.828 -0.136249 1.8584
upperback 2.02704 0.26063 0.266707
thorax -9.44858 0.0500629 -0.842997
lowerneck -10.1967 -6.45883 -5.66812
upperneck 5.35085 -8.40885 6.55828
head 3.76913 -3.97708 2.35975
rclavicle -1.4884e-014 1.07841e-014
rhumerus -87.9008 22.5311 -107.324
rradius 110.07
rwrist -9.8215
rhand -11.2235 -43.4065
rfingers 7.12502
rthumb 14.8052 -72.8576
lclavicle -1.4884e-014 1.07841e-014
lhumerus -87.519 -25.6559 113.888
lradius 111.752
lwrist 28.9947
lhand -24.9762 -21.0859
lfingers 7.12502
lthumb 1.53458 8.88834
rfemur -8.67541 1.16459 14.9365
rtibia 9.01005
rfoot -14.5272 -9.01773
rtoes -12.8753
lfemur -16.7745 1.18296 -12.5558
ltibia 27.857
lfoot -21.8392 11.6517
ltoes -56.137
602
root -0.740249 18.703 5.68516 9.6208 -7.92821 -1.87581
lowerback 20.7491 -0.106388 1.86843
upperback 1.99658 0.299775 0.257327
thorax -9.43802 0.0679654 -0.869835
lowerneck -10.7663 -5.57734 -4.83869
upperneck 5.50379 -7.30134 6.29313
head 3.80059 -3.41243 2.21583
rclavicle 5.31749e-015 6.60959e-015
rhumerus -87.9301 22.4164 -107.282
rradius 110.032
rwrist -9.84905
rhand -11.4052 -43.3284
rfingers 7.12502
rthumb 14.6301 -72.7923
lclavicle 5.31749e-015 6.60959e-015
lhumerus -87.5328 -25.6684 113.956
lradius 111.597
lwrist 29.1447
lhand -24.9385 -21.7524
lfingers 7.12502
lthumb 1.57094 8.22157
rfemur -8.72069 1.21296 14.9251
rtibia 9.07901
rfoot -14.5625 -8.99853
rtoes -12.8373
lfemur -16.7672 1.26338 -12.5676
ltibia 27.8722
lfoot -21.8407 11.6328
ltoes -56.1975
603
root -0.740688 18.703 5.68522 9.61943 -7.97028 -1.86592
lowerback 20.6503 -0.0807091 1.82575
upperback 1.96544 0.322775 0.264655
thorax -9.41819 0.0807966 -0.843576
lowerneck -11.3101 -5.06436 -4.09259
upperneck 5.82747 -6.68687 5.93924
head 3.91588 -3.09611 2.02
rclavicle -3.77691e-015 -8.24956e-015
rhumerus -87.9997 22.409 -107.264
rradius 110.067
rwrist -9.83063
rhand -11.4554 -43.4822
rfingers 7.12502
rthumb 14.5817 -72.9496
lclavicle -3.77691e-015 -8.24956e-015
lhumerus -87.4833 -25.6002 113.964
lradius 111.562
lwrist 29.1324
lhand -24.8266 -21.7317
lfingers 7.12502
lthumb 1.67902 8.24139
rfemur -8.75476 1.25189 14.9035
rtibia 9.12754
rfoot -14.5832 -8.97575
rtoes -12.5772
lfemur -16.7624 1.30562 -12.5916
ltibia 27.8824
lfoot -21.8181 11.6683
ltoes -56.3253
604
root -0.741467 18.7023 5.68437 9.59685 -7.98037 -1.86473
lowerback 20.5829 -0.0720985 1.799
upperback 1.92264 0.328286 0.274446
thorax -9.42882 0.0844426 -0.818924
lowerneck -11.497 -4.83423 -3.81814
upperneck 5.97118 -6.42443 5.97445
head 3.96979 -2.95304 2.00155
rclavicle 1.09829e-014 -1.42131e-014
rhumerus -88.0409 22.4553 -107.272
rradius 110.102
rwrist -9.76362
rhand -11.3838 -43.7286
rfingers 7.12502
rthumb 14.6508 -73.191
lclavicle 1.09829e-014 -1.42131e-014
lhumerus -87.4332 -25.4973 113.945
lradius 111.529
lwrist 29.0597
lhand -24.6853 -21.6324
lfingers 7.12502
lthumb 1.81549 8.33961
rfemur -8.7581 1.26374 14.902
rtibia 9.16808
rfoot -14.5818 -8.96207
rtoes -12.4172
lfemur -16.7463 1.29342 -12.5905
ltibia 27.8826
lfoot -21.8042 11.7156
ltoes -56.395
605
root -0.741758 18.7017 5.68239 9.54988 -7.95618 -1.84942
lowerback 20.5184 -0.0797474 1.80224
upperback 1.90716 0.317905 0.274104
thorax -9.41095 0.0795554 -0.817981
lowerneck -11.3456 -4.87289 -3.86312
upperneck 5.737 -6.47766 6.13735
head 3.88375 -2.97796 2.05989
rclavicle -2.4202e-014 -1.27719e-014
rhumerus -87.963 22.5294 -107.262
rradius 110.118
rwrist -9.83092
rhand -11.3095 -43.9344
rfingers 7.12502
rthumb 14.7224 -73.3916
lclavicle -2.4202e-014 -1.27719e-014
lhumerus -87.3695 -25.4581 113.927
lradius 111.466
lwrist 28.9982
lhand -24.656 -21.5357
lfingers 7.12502
lthumb 1.84385 8.43606
rfemur -8.7198 1.24172 14.8938
rtibia 9.19116
rfoot -14.5992 -8.94693
rtoes -12.3861
lfemur -16.7127 1.25128 -12.5958
ltibia 27.8735
lfoot -21.7851 11.7023
ltoes -56.3184
606
root -0.743025 18.7011 5.67959 9.50134 -7.89693 -1.85578
lowerback 20.4286 -0.099552 1.84246
upperback 1.92979 0.299655 0.283216
thorax -9.33706 0.0703963 -0.825481
lowerneck -11.1048 -5.11443 -4.13147
upperneck 5.38413 -6.77379 6.38384
head 3.77017 -3.12731 2.16435
rclavicle 6.31141e-015 2.73329e-015
rhumerus -87.8654 22.6324 -107.23
rradius 110.172
rwrist -10.0266
rhand -11.182 -44.064
rfingers 7.12502
rthumb 14.8452 -73.5122
lclavicle 6.31141e-015 2.73329e-015
lhumerus -87.2953 -25.4715 113.912
lradius 111.415
lwrist 29.0201
lhand -24.7101 -21.5449
lfingers 7.12502
lthumb 1.79158 8.42736
rfemur -8.66532 1.1908 14.923
rtibia 9.19949
rfoot -14.6225 -8.95098
rtoes -12.3862
lfemur -16.6782 1.20207 -12.5694
ltibia 27.8615
lfoot -21.7552 11.6575
ltoes -56.2136
